<?xml version="1.0" encoding="UTF-8"?><svg id="Layer_3" xmlns="http://www.w3.org/2000/svg" viewBox="0 0 535.29 62.76"><defs><style>.cls-1{fill:#0f0f0f;}.cls-2{fill:#010101;fill-rule:evenodd;}</style></defs><g id="OPt-2"><g id="prog2_pro3_Mobile-Portrait_opt2-Copy-2"><g id="nav"><g id="Group-6"><g id="ic_home"><g id="Group"><path id="Shape" class="cls-2" d="m45.43,18.3l-2.28,1.77-3.67,2.84c-.49-2.47-1.92-4.6-3.9-5.98l7.07-5.47-2.19-2.91c-.89-1.19-.67-2.89.5-3.79l5.33,7.07c.79,1.05,1.06,2.33.87,3.53-.18,1.13-.76,2.19-1.73,2.94h0Z"/><path id="Shape-2" class="cls-2" d="m23.02,43.01c7.88-4.13,14.9-5.3,16.68-2.46,1.45,2.33-1.02,6.75-5.86,11.28l4.6,7.48h3.13c1.44.04,2.6,1.23,2.6,2.7h-9.46l-1.66-2.7-2.66-4.33-1.04-1.69c.37-.61.58-1.32.58-2.09,0-2.22-1.78-4.02-3.97-4.02-.12,0-.24.01-.36.02l-2.57-4.18h0Z"/><path id="Shape-3" class="cls-2" d="m.97,17.25c.41-2.01,2.17-3.52,4.27-3.52.6,0,1.17.12,1.69.35,1.57.67,2.67,2.24,2.67,4.08v20.97c0,1.49,1.19,2.71,2.67,2.71,1.07,0,2-.64,2.42-1.57.04-.08.07-.17.1-.25l2.48-6.23-4.81-16.46s0-.02-.01-.03c-.06-.18-.11-.37-.16-.55-1.75-6.45,1.4-13.18,7.3-15.94l11.33,3.99c1.39.48,2.13,2.01,1.67,3.42l-2.87-1.04c-1.13-.41-2.38.19-2.79,1.34-.41,1.15.19,2.42,1.32,2.83l2.96,1.07c-.52,1.39-2.04,2.1-3.42,1.58l-3.13-1.16c-.22,1.28.49,2.57,1.73,3.02l5.99,2.21c2.53,1.1,4.32,3.59,4.44,6.52,0,.11.01.21.01.32,0,.07,0,.13,0,.2.01-.03.02-.05.02-.05h9.35v-3.66c0-1.02,1.25-1.91,2.04-2.37l.63-.34v8.96c-.03,2.52-2.06,4.56-4.55,4.56h-10.55c-.93,0-1.84.11-2.71.32.04-.01.08-.03.13-.04-.05.01-.09.03-.14.04-.03,0-.05.01-.08.02-4.7,1.18-8.27,5.27-8.75,10.27,0,.09-.01.18-.02.26-.02.29-.04.58-.04.88,0,2.82.98,5.4,2.61,7.43.12.15.24.29.37.44.33.48.53,1.07.53,1.7,0,1.64-1.31,2.96-2.92,2.96-.58,0-1.12-.17-1.58-.47l-5.92-3.54c-.82.46-1.37,1.35-1.37,2.36,0,.67.24,1.29.64,1.76l2.46,2.7h3.14c1.44.04,2.6,1.23,2.6,2.7h-8.56c0-2.55-2.04-4.62-4.56-4.62v-7.88c2.09-.42,3.66-2.29,3.66-4.53,0-.11,0-.22-.01-.33-.27.04-.54.07-.82.07-1.04,0-2-.3-2.83-.8-1.6-.98-2.67-2.75-2.67-4.78v-20.97c0-.98-.78-1.77-1.74-1.77s-1.69.74-1.74,1.67c1.2.83,1.99,2.23,1.99,3.81,0,2.55-2.04,4.62-4.56,4.62v-8.33c0-.31.03-.61.09-.9h0Z"/></g></g></g></g></g></g><g><path class="cls-1" d="m71.15,49.38c-2.77-1.49-4.94-3.55-6.53-6.19-1.58-2.64-2.38-5.62-2.38-8.95s.79-6.31,2.38-8.95,3.76-4.7,6.53-6.19c2.77-1.49,5.88-2.23,9.34-2.23,2.91,0,5.54.51,7.9,1.54,2.35,1.02,4.33,2.5,5.93,4.42l-4.99,4.61c-2.27-2.62-5.09-3.94-8.45-3.94-2.08,0-3.94.46-5.57,1.37-1.63.91-2.9,2.18-3.82,3.82-.91,1.63-1.37,3.49-1.37,5.57s.46,3.94,1.37,5.57c.91,1.63,2.18,2.9,3.82,3.82,1.63.91,3.49,1.37,5.57,1.37,3.36,0,6.18-1.33,8.45-3.98l4.99,4.61c-1.6,1.95-3.58,3.44-5.95,4.46-2.37,1.02-5.01,1.54-7.92,1.54-3.42,0-6.52-.74-9.29-2.23Z"/><path class="cls-1" d="m105.66,49.36c-2.8-1.5-4.99-3.58-6.58-6.22s-2.38-5.61-2.38-8.9.79-6.26,2.38-8.9,3.78-4.71,6.58-6.22c2.8-1.5,5.94-2.26,9.43-2.26s6.62.75,9.41,2.26c2.78,1.5,4.98,3.58,6.58,6.22,1.6,2.64,2.4,5.61,2.4,8.9s-.8,6.26-2.4,8.9c-1.6,2.64-3.79,4.71-6.58,6.22-2.78,1.5-5.92,2.26-9.41,2.26s-6.63-.75-9.43-2.26Zm14.81-5.74c1.6-.91,2.86-2.18,3.77-3.82s1.37-3.49,1.37-5.57-.46-3.94-1.37-5.57c-.91-1.63-2.17-2.9-3.77-3.82s-3.39-1.37-5.38-1.37-3.78.46-5.38,1.37c-1.6.91-2.86,2.18-3.77,3.82-.91,1.63-1.37,3.49-1.37,5.57s.46,3.94,1.37,5.57c.91,1.63,2.17,2.9,3.77,3.82,1.6.91,3.39,1.37,5.38,1.37s3.78-.46,5.38-1.37Z"/><path class="cls-1" d="m139.34,17.44h7.78v27.26h16.85v6.34h-24.62V17.44Z"/><path class="cls-1" d="m198.9,51.04l-.05-20.16-9.89,16.61h-3.5l-9.84-16.18v19.73h-7.3V17.44h6.43l12.58,20.88,12.38-20.88h6.38l.1,33.6h-7.3Z"/><path class="cls-1" d="m236.29,43.84h-15.6l-2.98,7.2h-7.97l14.98-33.6h7.68l15.02,33.6h-8.16l-2.98-7.2Zm-2.45-5.9l-5.33-12.86-5.33,12.86h10.66Z"/><path class="cls-1" d="m272.34,51.04l-6.48-9.36h-7.15v9.36h-7.78V17.44h14.54c2.98,0,5.56.5,7.75,1.49,2.19.99,3.88,2.4,5.06,4.22,1.18,1.82,1.78,3.98,1.78,6.48s-.6,4.65-1.8,6.46c-1.2,1.81-2.9,3.19-5.11,4.15l7.54,10.8h-8.35Zm-1.97-25.75c-1.22-1.01-2.99-1.51-5.33-1.51h-6.34v11.71h6.34c2.34,0,4.11-.51,5.33-1.54,1.22-1.02,1.82-2.46,1.82-4.32s-.61-3.34-1.82-4.34Z"/><path class="cls-1" d="m310.69,42.06h-18.72l-4.03,8.98h-3.7l15.36-33.6h3.5l15.36,33.6h-3.74l-4.03-8.98Zm-1.3-2.88l-8.06-18.05-8.06,18.05h16.13Z"/><path class="cls-1" d="m329.15,49.12c-2.67-1.47-4.77-3.51-6.29-6.12-1.52-2.61-2.28-5.53-2.28-8.76s.76-6.15,2.28-8.76c1.52-2.61,3.62-4.65,6.31-6.12,2.69-1.47,5.7-2.21,9.02-2.21,2.5,0,4.8.42,6.91,1.25,2.11.83,3.9,2.05,5.38,3.65l-2.26,2.26c-2.62-2.66-5.94-3.98-9.94-3.98-2.66,0-5.07.61-7.25,1.82-2.18,1.22-3.88,2.88-5.11,4.99-1.23,2.11-1.85,4.48-1.85,7.1s.62,4.99,1.85,7.1c1.23,2.11,2.94,3.78,5.11,4.99,2.18,1.22,4.59,1.82,7.25,1.82,4.03,0,7.34-1.34,9.94-4.03l2.26,2.26c-1.47,1.6-3.27,2.82-5.4,3.67-2.13.85-4.44,1.27-6.94,1.27-3.33,0-6.33-.74-9-2.21Z"/><path class="cls-1" d="m378.28,42.06h-18.72l-4.03,8.98h-3.7l15.36-33.6h3.5l15.36,33.6h-3.74l-4.03-8.98Zm-1.3-2.88l-8.06-18.05-8.06,18.05h16.13Z"/><path class="cls-1" d="m391.62,17.44h13.68c3.55,0,6.69.71,9.41,2.14,2.72,1.42,4.83,3.41,6.34,5.95,1.5,2.54,2.26,5.45,2.26,8.71s-.75,6.17-2.26,8.71c-1.5,2.54-3.62,4.53-6.34,5.95-2.72,1.42-5.86,2.14-9.41,2.14h-13.68V17.44Zm13.49,30.53c2.94,0,5.52-.58,7.73-1.75,2.21-1.17,3.92-2.78,5.14-4.85,1.22-2.06,1.82-4.44,1.82-7.13s-.61-5.06-1.82-7.13c-1.22-2.06-2.93-3.68-5.14-4.85-2.21-1.17-4.78-1.75-7.73-1.75h-9.94v27.46h9.94Z"/><path class="cls-1" d="m455.03,47.97v3.07h-23.76V17.44h23.04v3.07h-19.49v11.95h17.38v3.02h-17.38v12.48h20.21Z"/><path class="cls-1" d="m498.28,17.44v33.6h-3.41v-26.88l-13.2,22.61h-1.68l-13.2-22.46v26.74h-3.41V17.44h2.93l14.59,24.91,14.45-24.91h2.93Z"/><path class="cls-1" d="m520.74,39.42v11.62h-3.5v-11.62l-13.44-21.98h3.79l11.52,18.86,11.52-18.86h3.55l-13.44,21.98Z"/></g></svg>